<?xml version="1.0" encoding="UTF-8"?>
<svg width="1200" height="630" viewBox="0 0 1200 630" xmlns="http://www.w3.org/2000/svg">
  <!-- Background -->
  <rect width="1200" height="630" fill="#1a1a1a"/>
  
  <!-- SightTune Owl Logo (centered and scaled) -->
  <g transform="translate(450, 165) scale(3, 3)">
    <!-- Owl design based on the logo -->
    <path d="M50 20c-15 0-25 10-25 25v15c0 20 10 35 25 35s25-15 25-35V45c0-15-10-25-25-25z" fill="#ffffff" stroke="#ffffff" stroke-width="2"/>
    
    <!-- Eyes -->
    <circle cx="40" cy="40" r="6" fill="#1a1a1a"/>
    <circle cx="60" cy="40" r="6" fill="#1a1a1a"/>
    <circle cx="40" cy="40" r="2" fill="#ffffff"/>
    <circle cx="60" cy="40" r="2" fill="#ffffff"/>
    
    <!-- Beak -->
    <path d="M50 48 L47 53 L53 53 Z" fill="#ffffff"/>
    
    <!-- Wing patterns -->
    <path d="M30 50 Q35 55 30 65 Q35 70 30 75" stroke="#1a1a1a" stroke-width="2" fill="none"/>
    <path d="M70 50 Q65 55 70 65 Q65 70 70 75" stroke="#1a1a1a" stroke-width="2" fill="none"/>
    
    <!-- Body feathers -->
    <path d="M45 55 Q50 60 55 55" stroke="#1a1a1a" stroke-width="2" fill="none"/>
    <path d="M42 62 Q50 67 58 62" stroke="#1a1a1a" stroke-width="2" fill="none"/>
    <path d="M40 70 Q50 75 60 70" stroke="#1a1a1a" stroke-width="2" fill="none"/>
    
    <!-- Talons -->
    <path d="M40 85 L38 90 M42 85 L40 90 M44 85 L42 90" stroke="#ffffff" stroke-width="2"/>
    <path d="M56 85 L58 90 M58 85 L60 90 M60 85 L62 90" stroke="#ffffff" stroke-width="2"/>
  </g>
  
  <!-- SightTune Text -->
  <text x="600" y="420" text-anchor="middle" font-family="Arial, sans-serif" font-size="48" font-weight="bold" fill="#ffffff">SightTune</text>
  
  <!-- Tagline -->
  <text x="600" y="470" text-anchor="middle" font-family="Arial, sans-serif" font-size="24" fill="#cccccc">Classical Music Discovery</text>
</svg>